<?xml version="1.0" standalone="no"?><svg data-noselect="" 
  viewBox="142.209870427 41.97266471024503 621.73101148413 466" 
  width="621.73101148413" 
  height="466" 
  ref="svg_canvas" 
  preserveAspectRatio="none" 
  version="1.1" xmlns="http://www.w3.org/2000/svg" 
  style="background: #ffffff;">
    <defs></defs>
    <g id="shape_SPT9eLGN8Y" class=""  ref="shape_SPT9eLGN8Y" key="shape_SPT9eLGN8Y" transform="translate(222.209870427,195.73968860093) rotate(0,63.3950647865,55.694534318083) scale(1,1)" style="cursor:move;display:inline;opacity:1;" filter="">
            <g style="display:inline"><rect fill="rgba(0,0,0,0)" width="146.7901295729991" height="131.38906863616586" x="-10" y="-10"></rect><svg version="1.1" id="图层_1" xmlns="http://www.w3.org/2000/svg" xmlns:xlink="http://www.w3.org/1999/xlink" x="0px" y="0px" viewBox="0 0 283.2 248.8" enable-background="new 0 0 283.2 248.8" xml:space="preserve" width="126.7901295729991" height="111.38906863616587" class="style-removed" preserveAspectRatio="none" data-parent="shape_SPT9eLGN8Y">
<g>
	<path fill="#0CB1EB" d="M5.3,246.5c0,0,35.8-20.5,34.2-41.6c-2.1-28-46.2-48.6-38.7-101.4C9.7,41.6,58.3,45.1,83,47.1
		c41.8,3.3,71.8,20.4,100.5,51.7c2.2,2.4,5.8,2.5,8,0.2v0c1.9-1.9,2.1-4.9,0.4-7C181.3,78,136.6,28.7,51.5,37.7
		C-48.1,48.2,48-4.9,144.8,0.4s139.8,60.2,138.4,108.1c-1.3,43.1-44.1,70.2-73.3,71c-49.4,1.3-87.6-37.8-97.2-58.5
		c0,0,61.5,35.6,98.7,25.7c22.1-5.9,31.7-33.5,31.7-47.4c0-22.9-17.9-49.5-56-64.3c-1.6-0.6-3.3,0.2-4.1,1.7v0
		c-0.8,1.6-0.2,3.6,1.4,4.5c11.3,6.2,49.5,25.7,48.9,56.3c-0.7,32.4-31,48.1-53.4,40.1c-22.4-8-69.8-40.1-97.9-46.4
		c-16.3-3.7-35.9,4.2-34.5,25.8c1.7,26,20.4,44.8,41.2,57.2c19.5,11.6,17.8,27.4,14.5,38.6C98.1,229.5,54.5,257,5.3,246.5z" stroke-width="0"></path>
</g>
</svg></g>
        </g><g id="shape_q4El627UUK" class="brand_name"  ref="shape_q4El627UUK" key="shape_q4El627UUK" transform="translate(175.07088191113002,-6.274359180440001) rotate(0,259.47478245376,317.48) scale(1,1)" style="cursor:move;display:inline;opacity:1;" filter="">
            <g style="display:inline"><svg xmlns="http://www.w3.org/2000/svg" version="1.1" xmlns:xlink="http://www.w3.org/1999/xlink" width="769.48" height="634.96" viewBox="0 0 769.48 634.96" preserveAspectRatio="none" data-parent="shape_q4El627UUK"><rect fill="rgba(0,0,0,0)" width="422" height="86" x="86.87" y="274.48"></rect><g data-width="421.75385" transform="translate(86.87, 0)"><path d="M34.92-26.50L36.22-35.79L41.78-48.13L36.49-48.13L37.70-56.64L45.61-56.64L46.56-58.64L44.65-61.59L60.20-61.59L58.03-56.64L78.44-56.64L77.23-48.13L54.21-48.13L48.39-34.92L51.77-34.92L52.90-42.74L64.28-42.74L63.15-34.92L75.32-34.92L74.19-26.50L62.03-26.50L58.98-4.95Q58.64-2.43 56.68-0.83Q54.73 0.78 52.21 0.78L52.21 0.78L38.83 0.78L46.65-7.30L49.26-26.50L34.92-26.50ZM23.98-51.60L20.15-51.60L12.86 0.52L1.48 0.52L9.99-60.11L35.53-60.11L34.40-51.69L30.58-38.66L33.53-38.66L33.10-31.19L28.32-8.95L16.24-8.95L17.29-16.33L19.89-16.33L23.02-31.19L19.20-31.19L20.24-38.66L23.98-51.60ZM45.78-23.11L39.00-0.96L29.36-0.96L36.14-23.11L45.78-23.11ZM73.06-23.11L73.75-0.96L64.11-0.96L63.42-23.11L73.06-23.11Z" transform="translate(0 347.48) skewX(0)" fill="#280D60" stroke="#280D60" stroke-width="0.145" data-glyph-w="79.9204" data-glyph-h="112.931" data-glyph-ascender="86.87" data-glyph-descender="-26.061"></path><path d="M34.75-29.88L33.27-21.02L3.65-21.02L5.04-29.88L34.75-29.88Z" transform="translate(79.9204 347.48) skewX(0)" fill="#280D60" stroke="#280D60" stroke-width="0.145" data-glyph-w="38.65715" data-glyph-h="112.931" data-glyph-ascender="86.87" data-glyph-descender="-26.061"></path><path d="M41.96-24.15L4.69-7.56L6.43-21.20L29.10-30.14L9.03-39.09L10.77-51.95L43.52-35.36L41.96-24.15Z" transform="translate(118.57755 347.48) skewX(0)" fill="#280D60" stroke="#280D60" stroke-width="0.145" data-glyph-w="48.38659" data-glyph-h="112.931" data-glyph-ascender="86.87" data-glyph-descender="-26.061"></path><path d="M7.21-54.38L63.15-54.38L60.64-34.40L55.60-31.10L59.77-27.71L57.25-11.03Q56.64-8.51 54.90-6.86Q53.16-5.21 50.65-5.21L50.65-5.21L3.91-5.21L9.73-51.08L7.21-54.38ZM45.61-46.04L25.63-46.04L24.76-35.27L43.96-35.27L45.61-46.04ZM43.09-26.93L23.11-26.93L21.46-13.55L41.44-13.55L43.09-26.93Z" transform="translate(166.96414 347.48) skewX(0)" fill="#280D60" stroke="#280D60" stroke-width="0.145" data-glyph-w="67.06364" data-glyph-h="112.931" data-glyph-ascender="86.87" data-glyph-descender="-26.061"></path><path d="M6.43-54.38L26.41-54.38L20.59-13.55L53.08-13.55L52.30-5.21L8.95-5.21Q6.43-5.21 5.17-6.86Q3.91-8.51 3.91-11.03L3.91-11.03L8.95-51.08L6.43-54.38Z" transform="translate(234.02778 347.48) skewX(0)" fill="#280D60" stroke="#280D60" stroke-width="0.145" data-glyph-w="55.68367" data-glyph-h="112.931" data-glyph-ascender="86.87" data-glyph-descender="-26.061"></path><path d="M9.90-54.38L56.64-54.38Q57.86-54.38 58.90-53.95Q59.94-53.51 60.68-52.73Q61.42-51.95 61.68-50.91Q61.94-49.86 61.59-48.56L61.59-48.56L55.77-5.21L9.03-5.21Q7.82-5.21 6.78-5.65Q5.73-6.08 5.00-6.86Q4.26-7.64 4.00-8.73Q3.74-9.82 4.08-11.03L4.08-11.03L9.90-54.38ZM44.91-46.04L24.93-46.04L20.76-13.55L39.96-13.55L44.91-46.04Z" transform="translate(289.71145 347.48) skewX(0)" fill="#280D60" stroke="#280D60" stroke-width="0.145" data-glyph-w="65.67372" data-glyph-h="112.931" data-glyph-ascender="86.87" data-glyph-descender="-26.061"></path><path d="M62.46-54.38L60.81-40.22L44.13-40.22L44.91-46.04L24.93-46.04L20.76-13.55L40.74-13.55L41.61-23.54L36.57-31.88L59.07-31.88L55.77-5.21L9.03-5.21Q7.82-5.21 6.78-5.65Q5.73-6.08 5.00-6.86Q4.26-7.64 4.00-8.73Q3.74-9.82 4.08-11.03L4.08-11.03L9.90-54.38L62.46-54.38Z" transform="translate(355.38517 347.48) skewX(0)" fill="#280D60" stroke="#280D60" stroke-width="0.145" data-glyph-w="66.36868" data-glyph-h="112.931" data-glyph-ascender="86.87" data-glyph-descender="-26.061"></path></g></svg></g>
        </g><g id="shape_RkjaQer7VC" class="brand_slogan"  ref="shape_RkjaQer7VC" key="shape_RkjaQer7VC" transform="translate(334.84296722972,182.12012564775) rotate(0,146.40990032637,79.3525390625) scale(1,1)" style="cursor:move;display:inline;opacity:1;" filter="">
            <g style="display:inline"><svg xmlns="http://www.w3.org/2000/svg" version="1.1" xmlns:xlink="http://www.w3.org/1999/xlink" width="272" height="158.705078125" viewBox="0 0 272 158.705078125" preserveAspectRatio="none" data-parent="shape_RkjaQer7VC"><rect fill="rgba(0,0,0,0)" width="182" height="22" x="22.5" y="68.3525390625"></rect><g data-width="181.9832542155848" transform="translate(22.5, 0)"><path d="M8.79-2.31Q12.57-2.31 15.01-5.21L15.01-5.21L13.29-6.66Q11.52-4.55 8.79-4.55L8.79-4.55Q6.35-4.55 4.63-6.27L4.63-6.27Q2.90-8.00 2.90-10.44L2.90-10.44Q2.90-12.88 4.63-14.60L4.63-14.60Q6.35-16.31 8.79-16.31L8.79-16.31Q11.52-16.31 13.29-14.22L13.29-14.22L15.01-15.66Q12.57-18.57 8.79-18.57L8.79-18.57Q5.42-18.57 3.04-16.18L3.04-16.18Q0.66-13.80 0.66-10.44L0.66-10.44Q0.66-7.06 3.04-4.69L3.04-4.69Q5.42-2.31 8.79-2.31L8.79-2.31Z" transform="translate(0 86.3525390625) skewX(0)" fill="#280D60" stroke="#280D60" stroke-width="0.038" data-glyph-w="18.45145439601907" data-glyph-h="23.44482421875" data-glyph-ascender="18.8525390625" data-glyph-descender="-4.59228515625"></path><path d="M3.34-9.32L10.62-9.32L10.62-2.59L12.86-2.59L12.86-18.28L10.62-18.28L10.62-11.56L3.34-11.56L3.34-18.28L1.10-18.28L1.10-2.59L3.34-2.59L3.34-9.32Z" transform="translate(18.45145439601907 86.3525390625) skewX(0)" fill="#280D60" stroke="#280D60" stroke-width="0.038" data-glyph-w="16.74857353664407" data-glyph-h="23.44482421875" data-glyph-ascender="18.8525390625" data-glyph-descender="-4.59228515625"></path><path d="M1.10-18.28L12.30-18.28L12.30-16.04L3.34-16.04L3.34-11.56L12.30-11.56L12.30-9.32L3.34-9.32L3.34-4.83L12.30-4.83L12.30-2.59L1.10-2.59L1.10-18.28Z" transform="translate(35.20002793266314 86.3525390625) skewX(0)" fill="#280D60" stroke="#280D60" stroke-width="0.038" data-glyph-w="15.74881767726907" data-glyph-h="23.44482421875" data-glyph-ascender="18.8525390625" data-glyph-descender="-4.59228515625"></path><path d="M3.32-18.28L1.10-18.28L1.10-2.59L3.34-2.59L3.34-14.25L11.21-2.59L13.43-2.59L13.43-18.28L11.18-18.28L11.18-6.62L3.32-18.28Z" transform="translate(50.94884560993221 86.3525390625) skewX(0)" fill="#280D60" stroke="#280D60" stroke-width="0.038" data-glyph-w="17.30887627101907" data-glyph-h="23.44482421875" data-glyph-ascender="18.8525390625" data-glyph-descender="-4.59228515625"></path><path d="" transform="translate(68.25772188095128 86.3525390625) skewX(0)" fill="#280D60" stroke="#280D60" stroke-width="0.038" data-glyph-w="11.739950489769072" data-glyph-h="22.5" data-glyph-ascender="19.8" data-glyph-descender="-2.6999999999999997"></path><path d="M11.87-6.79L0.66-6.79L0.66-9.03L11.87-9.03L11.87-6.79Z" transform="translate(79.99767237072035 86.3525390625) skewX(0)" fill="#280D60" stroke="#280D60" stroke-width="0.038" data-glyph-w="15.30936455226907" data-glyph-h="23.44482421875" data-glyph-ascender="18.8525390625" data-glyph-descender="-4.59228515625"></path><path d="M11.87-6.81L11.87-9.02L0.66-13.51L0.66-11.11L8.59-7.91L0.66-4.72L0.66-2.31L11.87-6.81Z" transform="translate(95.30703692298943 86.3525390625) skewX(0)" fill="#280D60" stroke="#280D60" stroke-width="0.038" data-glyph-w="15.30936455226907" data-glyph-h="23.44482421875" data-glyph-ascender="18.8525390625" data-glyph-descender="-4.59228515625"></path><path d="M1.10-2.59L8.53-2.59Q10.44-2.59 11.80-3.94L11.80-3.94Q13.15-5.30 13.15-7.22L13.15-7.22Q13.15-9.13 11.80-10.48L11.80-10.48Q11.50-10.78 11.17-11.01L11.17-11.01Q12.30-12.24 12.30-13.94L12.30-13.94Q12.30-15.73 11.04-17.01L11.04-17.01Q9.77-18.28 7.97-18.28L7.97-18.28L1.10-18.28L1.10-2.59ZM3.34-9.59L8.53-9.59Q9.51-9.59 10.21-8.90L10.21-8.90Q10.91-8.20 10.91-7.22L10.91-7.22Q10.91-6.23 10.21-5.53L10.21-5.53Q9.51-4.83 8.53-4.83L8.53-4.83L3.34-4.83L3.34-9.59ZM3.34-16.04L7.97-16.04Q8.83-16.04 9.45-15.42L9.45-15.42Q10.06-14.81 10.06-13.94L10.06-13.94Q10.06-13.06 9.45-12.45L9.45-12.45Q8.83-11.83 7.97-11.83L7.97-11.83L3.34-11.83L3.34-16.04Z" transform="translate(110.6164014752585 86.3525390625) skewX(0)" fill="#280D60" stroke="#280D60" stroke-width="0.038" data-glyph-w="16.59476494289407" data-glyph-h="23.44482421875" data-glyph-ascender="18.8525390625" data-glyph-descender="-4.59228515625"></path><path d="M1.10-2.59L10.62-2.59L10.62-4.83L3.34-4.83L3.34-18.28L1.10-18.28L1.10-2.59Z" transform="translate(127.21116641815257 86.3525390625) skewX(0)" fill="#280D60" stroke="#280D60" stroke-width="0.038" data-glyph-w="14.06790947414407" data-glyph-h="23.44482421875" data-glyph-ascender="18.8525390625" data-glyph-descender="-4.59228515625"></path><path d="M8.79-18.57Q12.15-18.57 14.53-16.18L14.53-16.18Q16.91-13.80 16.91-10.44L16.91-10.44Q16.91-7.06 14.53-4.69L14.53-4.69Q12.15-2.31 8.79-2.31L8.79-2.31Q5.42-2.31 3.04-4.69L3.04-4.69Q0.66-7.06 0.66-10.44L0.66-10.44Q0.66-13.80 3.04-16.18L3.04-16.18Q5.42-18.57 8.79-18.57L8.79-18.57ZM8.79-16.31L8.79-16.31Q6.35-16.31 4.63-14.60L4.63-14.60Q2.90-12.88 2.90-10.44L2.90-10.44Q2.90-8.00 4.63-6.27L4.63-6.27Q6.35-4.55 8.79-4.55L8.79-4.55Q11.23-4.55 12.94-6.27L12.94-6.27Q14.67-8.00 14.67-10.44L14.67-10.44Q14.67-12.88 12.94-14.60L12.94-14.60Q11.23-16.31 8.79-16.31Z" transform="translate(141.27907589229665 86.3525390625) skewX(0)" fill="#280D60" stroke="#280D60" stroke-width="0.038" data-glyph-w="20.35208916164407" data-glyph-h="23.44482421875" data-glyph-ascender="18.8525390625" data-glyph-descender="-4.59228515625"></path><path d="M16.83-11.56L8.22-11.56L8.22-9.32L14.57-9.32Q14.26-7.59 12.94-6.27L12.94-6.27Q11.22-4.55 8.78-4.55L8.78-4.55Q6.34-4.55 4.63-6.27L4.63-6.27Q2.90-8.00 2.90-10.44L2.90-10.44Q2.90-12.88 4.63-14.60L4.63-14.60Q6.34-16.31 8.78-16.31L8.78-16.31Q11.52-16.31 13.29-14.22L13.29-14.22L15.01-15.66Q12.57-18.57 8.78-18.57L8.78-18.57Q5.42-18.57 3.03-16.18L3.03-16.18Q0.66-13.80 0.66-10.44L0.66-10.44Q0.66-7.06 3.03-4.69L3.03-4.69Q5.42-2.31 8.78-2.31L8.78-2.31Q12.15-2.31 14.52-4.69L14.52-4.69Q16.91-7.06 16.91-10.44L16.91-10.44Q16.91-11.00 16.83-11.56L16.83-11.56Z" transform="translate(161.63116505394072 86.3525390625) skewX(0)" fill="#280D60" stroke="#280D60" stroke-width="0.038" data-glyph-w="20.35208916164407" data-glyph-h="23.44482421875" data-glyph-ascender="18.8525390625" data-glyph-descender="-4.59228515625"></path></g></svg></g>
        </g>
  </svg>